<svg xmlns="http://www.w3.org/2000/svg" height="215" width="1349" xmlns:xlink="http://www.w3.org/1999/xlink" viewBox="0 0 1349 215">
    <defs/>
    <g transform="translate(-381.36,-171.87)">
        <path id="shape1" fill="#ffffff" transform="translate(718.11,188.98)" fill-rule="nonzero" stroke="#323232" d="M.0,.0L255.1,.0L255.1,108.7L.0,108.7L.0,.0z"/>
        <g id="shape2" transform="translate(731.50,223.46)">
            <path fill="#99bd25" fill-rule="nonzero" stroke="#323232" d="M100.0,60.0L100.0,.0L.0,.0L.0,60.0L100.0,60.0z"/>
            <text xml:space="preserve" style="fill:#191919;font-family:Microsoft YaHei;font-size:10.00pt">
                <tspan x="22.5" y="35.5">Thread A</tspan>
            </text>
        </g>
        <g id="shape3" transform="translate(382.36,223.46)">
            <path fill="#99bd25" fill-rule="nonzero" stroke="#323232" d="M100.0,60.0L100.0,.0L.0,.0L.0,60.0L100.0,60.0z"/>
            <text xml:space="preserve" style="fill:#191919;font-family:Microsoft YaHei;font-size:10.00pt">
                <tspan x="22.5" y="35.5">Thread A</tspan>
            </text>
        </g>
        <g id="shape4" transform="translate(382.36,321.26)">
            <path fill="#ffb713" fill-rule="nonzero" stroke="#323232" d="M100.0,60.0L100.0,.0L.0,.0L.0,60.0L100.0,60.0z"/>
            <text xml:space="preserve" style="fill:#191919;font-family:Microsoft YaHei;font-size:10.00pt">
                <tspan x="23.0" y="35.5">Thread B</tspan>
            </text>
        </g>
        <g id="shape5" transform="translate(563.62,272.36)">
            <path fill="#ffffff" fill-rule="nonzero" stroke="#323232" d="M.0,30.0C.0,13.4,13.4,.0,30.0,.0C46.6,.0,60.0,13.4,60.0,30.0C60.0,46.6,46.6,60.0,30.0,60.0C13.4,60.0,.0,46.6,.0,30.0z"/>
            <text xml:space="preserve" style="fill:#191919;font-family:Microsoft YaHei;font-size:10.00pt">
                <tspan x="4.0" y="35.5">同步资源</tspan>
            </text>
        </g>
        <g id="shape6" transform="translate(482.36,253.46)">
            <path fill="none" stroke="#191919" d="M.0,.0L49.3,.0L49.3,48.9L75.3,48.9"/>
            <path stroke-width="1" fill="#191919" stroke-linecap="round" stroke="#191919" d="M75.3,45.9L81.3,48.9L75.3,51.9L75.3,45.9"/>
            <rect x="14.9" height="19.0" y="-9.5" width="52.0" fill="#ffffff"/>
            <text xml:space="preserve" style="fill:#191919;font-family:Microsoft YaHei;font-size:10.00pt">
                <tspan x="14.9" y="5.5">尝试加锁</tspan>
            </text>
        </g>
        <g id="shape7" transform="translate(482.36,351.26)">
            <path fill="none" stroke="#191919" d="M.0,.0L49.3,.0L49.3,-48.9L75.3,-48.9"/>
            <path stroke-width="1" fill="#191919" stroke-linecap="round" stroke="#191919" d="M75.3,-51.9L81.3,-48.9L75.3,-45.9L75.3,-51.9"/>
            <rect x="10.9" height="19.0" y="-9.5" width="52.0" fill="#ffffff"/>
            <text xml:space="preserve" style="fill:#191919;font-family:Microsoft YaHei;font-size:10.00pt">
                <tspan x="10.9" y="5.5">尝试加锁</tspan>
            </text>
        </g>
        <g id="group8" transform="translate(647.56,272.36)">
            <path id="shape9" stroke-width="3" fill="none" stroke="#00aeee" d="M.0,30.0C.0,13.4,13.4,.0,30.0,.0C46.5,.0,60.0,13.4,60.0,30.0C60.0,46.6,46.5,60.0,30.0,60.0C13.4,60.0,.0,46.6,.0,30.0z"/>
            <path id="shape10" fill="#00aeee" stroke-width="3" transform="translate(13.33,13.34)" fill-rule="nonzero" stroke="#00aeee" d="M.0,19.3L22.3,19.3L12.3,29.3L16.7,33.3L33.3,16.7L16.7,.0L12.3,4.0L22.3,14.0L.0,14.0L.0,19.3z"/>
        </g>
        <g id="shape11" transform="translate(895.98,223.46)">
            <path fill="#ffffff" fill-rule="nonzero" stroke="#323232" d="M.0,30.0C.0,13.4,13.4,.0,30.0,.0C46.6,.0,60.0,13.4,60.0,30.0C60.0,46.6,46.6,60.0,30.0,60.0C13.4,60.0,.0,46.6,.0,30.0z"/>
            <text xml:space="preserve" style="fill:#191919;font-family:Microsoft YaHei;font-size:10.00pt">
                <tspan x="4.0" y="35.5">同步资源</tspan>
            </text>
        </g>
        <g id="shape12" transform="translate(737.01,172.87)">
            <text xml:space="preserve" style="fill:#191919;font-family:Microsoft YaHei;font-size:10.00pt">
                <tspan x="37.2" y="32.4">Thread A 加锁成功并执行操作</tspan>
            </text>
        </g>
        <g id="shape13" transform="translate(831.50,253.46)">
            <path fill="none" stroke="#191919" d="M.0,.0L58.5,.0"/>
            <path stroke-width="1" fill="#191919" stroke-linecap="round" stroke="#191919" d="M58.5,-3.0L64.5,.0L58.5,3.0L58.5,-3.0"/>
        </g>
        <g id="shape14" transform="translate(731.50,321.26)">
            <path fill="#ffb713" fill-rule="nonzero" stroke="#323232" d="M100.0,60.0L100.0,.0L.0,.0L.0,60.0L100.0,60.0z"/>
            <text xml:space="preserve" style="fill:#191919;font-family:Microsoft YaHei;font-size:10.00pt">
                <tspan x="23.0" y="35.5">Thread B</tspan>
            </text>
        </g>
        <g id="shape15" transform="translate(859.84,332.16)">
            <text xml:space="preserve" style="fill:#191919;font-family:Microsoft YaHei;font-size:10.00pt">
                <tspan x="15.3" y="22.9">等待</tspan>
            </text>
        </g>
        <g id="group16" transform="translate(1009.37,272.36)">
            <path id="shape17" stroke-width="3" fill="none" stroke="#00aeee" d="M.0,30.0C.0,13.4,13.4,.0,30.0,.0C46.5,.0,60.0,13.4,60.0,30.0C60.0,46.6,46.5,60.0,30.0,60.0C13.4,60.0,.0,46.6,.0,30.0z"/>
            <path id="shape18" fill="#00aeee" stroke-width="3" transform="translate(13.33,13.34)" fill-rule="nonzero" stroke="#00aeee" d="M.0,19.3L22.3,19.3L12.3,29.3L16.7,33.3L33.3,16.7L16.7,.0L12.3,4.0L22.3,14.0L.0,14.0L.0,19.3z"/>
        </g>
        <g id="shape19" transform="translate(1102.76,213.31)">
            <path fill="#99bd25" fill-rule="nonzero" stroke="#323232" d="M100.0,60.0L100.0,.0L.0,.0L.0,60.0L100.0,60.0z"/>
            <text xml:space="preserve" style="fill:#191919;font-family:Microsoft YaHei;font-size:10.00pt">
                <tspan x="22.5" y="35.5">Thread A</tspan>
            </text>
        </g>
        <g id="shape20" transform="translate(1102.76,321.26)">
            <path fill="#ffb713" fill-rule="nonzero" stroke="#323232" d="M100.0,60.0L100.0,.0L.0,.0L.0,60.0L100.0,60.0z"/>
            <text xml:space="preserve" style="fill:#191919;font-family:Microsoft YaHei;font-size:10.00pt">
                <tspan x="23.0" y="35.5">Thread B</tspan>
            </text>
        </g>
        <g id="shape21" transform="translate(1266.14,272.36)">
            <path fill="#ffffff" fill-rule="nonzero" stroke="#323232" d="M.0,30.0C.0,13.4,13.4,.0,30.0,.0C46.6,.0,60.0,13.4,60.0,30.0C60.0,46.6,46.6,60.0,30.0,60.0C13.4,60.0,.0,46.6,.0,30.0z"/>
            <text xml:space="preserve" style="fill:#191919;font-family:Microsoft YaHei;font-size:10.00pt">
                <tspan x="4.0" y="35.5">同步资源</tspan>
            </text>
        </g>
        <g id="shape22" transform="translate(1202.76,351.26)">
            <path fill="none" stroke="#191919" d="M.0,.0L31.4,.0L31.4,-48.9L57.4,-48.9"/>
            <path stroke-width="1" fill="#191919" stroke-linecap="round" stroke="#191919" d="M57.4,-51.9L63.4,-48.9L57.4,-45.9L57.4,-51.9"/>
        </g>
        <g id="shape23" transform="translate(1209.45,221.27)">
            <text xml:space="preserve" style="fill:#191919;font-family:Microsoft YaHei;font-size:10.00pt">
                <tspan x="14.1" y="23.0">执行完毕释放资源</tspan>
            </text>
        </g>
        <g id="shape24" transform="translate(1218.90,332.16)">
            <text xml:space="preserve" style="fill:#191919;font-family:Microsoft YaHei;font-size:10.00pt">
                <tspan x="6.6" y="32.3">Thread B尝试获取锁</tspan>
            </text>
        </g>
        <g id="group25" transform="translate(1376.22,272.36)">
            <path id="shape26" stroke-width="3" fill="none" stroke="#00aeee" d="M.0,30.0C.0,13.4,13.4,.0,30.0,.0C46.5,.0,60.0,13.4,60.0,30.0C60.0,46.6,46.5,60.0,30.0,60.0C13.4,60.0,.0,46.6,.0,30.0z"/>
            <path id="shape27" fill="#00aeee" stroke-width="3" transform="translate(13.33,13.34)" fill-rule="nonzero" stroke="#00aeee" d="M.0,19.3L22.3,19.3L12.3,29.3L16.7,33.3L33.3,16.7L16.7,.0L12.3,4.0L22.3,14.0L.0,14.0L.0,19.3z"/>
        </g>
        <path id="shape28" fill="#ffffff" transform="translate(1474.65,268.58)" fill-rule="nonzero" stroke="#323232" d="M.0,.0L255.1,.0L255.1,117.2L.0,117.2L.0,.0z"/>
        <g id="shape29" transform="translate(1493.11,302.36)">
            <path fill="#ffb713" fill-rule="nonzero" stroke="#323232" d="M100.0,60.0L100.0,.0L.0,.0L.0,60.0L100.0,60.0z"/>
            <text xml:space="preserve" style="fill:#191919;font-family:Microsoft YaHei;font-size:10.00pt">
                <tspan x="23.0" y="35.5">Thread B</tspan>
            </text>
        </g>
        <g id="shape30" transform="translate(1657.60,302.36)">
            <path fill="#ffffff" fill-rule="nonzero" stroke="#323232" d="M.0,30.0C.0,13.4,13.4,.0,30.0,.0C46.6,.0,60.0,13.4,60.0,30.0C60.0,46.6,46.6,60.0,30.0,60.0C13.4,60.0,.0,46.6,.0,30.0z"/>
            <text xml:space="preserve" style="fill:#191919;font-family:Microsoft YaHei;font-size:10.00pt">
                <tspan x="4.0" y="35.5">同步资源</tspan>
            </text>
        </g>
        <g id="shape31" transform="translate(1479.37,256.16)">
            <text xml:space="preserve" style="fill:#191919;font-family:Microsoft YaHei;font-size:10.00pt">
                <tspan x="35.7" y="32.5">Thread B  加锁成功并执行操作</tspan>
            </text>
        </g>
        <g id="shape32" transform="translate(1593.11,332.36)">
            <path fill="none" stroke="#191919" d="M.0,.0L58.5,.0"/>
            <path stroke-width="1" fill="#191919" stroke-linecap="round" stroke="#191919" d="M58.5,-3.0L64.5,.0L58.5,3.0L58.5,-3.0"/>
        </g>
        <g id="shape33" transform="translate(1474.65,188.98)">
            <path fill="#99bd25" fill-rule="nonzero" stroke="#323232" d="M100.0,60.0L100.0,.0L.0,.0L.0,60.0L100.0,60.0z"/>
            <text xml:space="preserve" style="fill:#191919;font-family:Microsoft YaHei;font-size:10.00pt">
                <tspan x="22.5" y="35.5">Thread A</tspan>
            </text>
        </g>
    </g>
</svg>
