<svg xmlns="http://www.w3.org/2000/svg" viewBox="0 0 771 696" xmlns:xlink="http://www.w3.org/1999/xlink" width="771" height="696">
    <style type="text/css"><![CDATA[
.st3 {fill:#1f6391;font-family:宋体;font-size:10pt}
.st4 {fill:#1f6391;font-family:宋体;font-size:14pt;font-weight:bold}
.st2 {fill:#ffffff;font-family:宋体;font-size:12pt;font-weight:bold}
.st1 {fill:#ffffff;font-family:宋体;font-size:14pt;font-weight:bold}
]]></style>
    <defs/>
    <g transform="translate(-181.55,-802.73)">
        <path d="M609.7,323.3L609.7,0L0,0L0,323.3L609.7,323.3z" stroke="#cdcece" fill="#e9ebef" id="shape1" transform="translate(182.55,803.73)"/>
        <g id="shape2" transform="translate(182.55,803.73)">
            <path d="M610.8,64.3L610.8,0L0,0L0,64.3L610.8,64.3z" stroke="#00b4f0" fill="#303030"/>
            <text class="st1">
                <tspan x="272.4" y="39.1">Header</tspan>
            </text>
        </g>
        <path stroke-width="0.333333" d="M1.9,17.5C1.9,8.9,8.9,1.9,17.5,1.9C26,1.9,33,8.9,33,17.5C33,21.9,31.1,25.9,28.2,28.7C28.6,26.4,27.8,23.7,27.7,23.2C26.7,20.3,24.7,19.4,23.5,19.2C22,20.7,19.9,21.6,17.5,21.6C15,21.6,12.9,20.7,11.4,19.2C10.2,19.4,8.2,20.3,7.2,23.2C7.1,23.7,6.3,26.4,6.7,28.7C3.8,25.9,1.9,21.9,1.9,17.5zM17.5,19.1C20.7,19.1,23.3,16.5,23.3,13.2C23.3,10,20.7,7.4,17.5,7.4C14.2,7.4,11.6,10,11.6,13.2C11.6,16.5,14.2,19.1,17.5,19.1zM17.5,34.9C27.1,34.9,34.9,27.1,34.9,17.5C34.9,7.8,27.1,0,17.5,0C7.8,0,0,7.8,0,17.5C0,27.1,7.8,34.9,17.5,34.9z" stroke="#3498db" fill="#ffffff" id="shape3" transform="translate(741.01,818.42)"/>
        <g transform="translate(200,818.42)">
            <path stroke-width="0.333333" d="M3.7,6.9C5.8,6.9,7.5,5.3,7.5,3.4C7.5,1.5,5.8,0,3.7,0C1.7,0,0,1.5,0,3.4C0,5.3,1.7,6.9,3.7,6.9z" stroke="#3498db" fill="#ffffff" id="shape4" transform="translate(22.44,4.59)"/>
            <path stroke-width="0.333333" d="M32.7,0L2.2,0C1,0,0,.9,0,2L0,25.5C0,26.6,1,27.6,2.2,27.6L32.7,27.6C33.9,27.6,34.9,26.6,34.9,25.5L34.9,2C34.9,.9,33.9,0,32.7,0zM24.7,14.2C24.5,13.9,24.1,13.7,23.7,13.7C23.3,13.7,23,13.9,22.7,14.2L21.2,15.3C20.9,15.5,20.7,15.6,20.3,15.6C20,15.6,19.7,15.5,19.5,15.3C19.4,15.3,19.3,15.1,19.2,15L15,10.9C14.6,10.5,14.2,10.3,13.7,10.3C13.1,10.3,12.7,10.6,12.3,10.9L2.5,21.8L2.5,3.1C2.6,2.6,3,2.3,3.5,2.3L31.4,2.3C31.9,2.3,32.4,2.7,32.4,3.2L32.4,21.8L24.7,14.2z" stroke="#3498db" fill="#ffffff" id="shape5"/>
        </g>
        <g id="shape6" transform="translate(610.12,822.1)">
            <text class="st2">
                <tspan x="13.1" y="21.6">工作台</tspan>
            </text>
        </g>
        <path stroke-width="0.333333" d="M7,20.2C7,20.6,6.6,20.9,6.2,20.9L.7,20.9C.3,20.9,0,20.6,0,20.2L0,14.7C0,14.3,.3,14,.7,14L6.2,14C6.6,14,7,14.3,7,14.7L7,20.2zM34.9,.7C34.9,.3,34.6,0,34.2,0L28.7,0C28.3,0,27.9,.3,27.9,.7L27.9,6.2C27.9,6.6,28.3,7,28.7,7L34.2,7C34.6,7,34.9,6.6,34.9,6.2L34.9,.7zM20.9,28.7C20.9,28.3,20.6,27.9,20.2,27.9L14.7,27.9C14.3,27.9,14,28.3,14,28.7L14,34.2C14,34.6,14.3,34.9,14.7,34.9L20.2,34.9C20.6,34.9,20.9,34.6,20.9,34.2L20.9,28.7zM34.9,14.7C34.9,14.3,34.6,14,34.2,14L28.7,14C28.3,14,27.9,14.3,27.9,14.7L27.9,20.2C27.9,20.6,28.3,20.9,28.7,20.9L34.2,20.9C34.6,20.9,34.9,20.6,34.9,20.2L34.9,14.7zM20.9,14.7C20.9,14.3,20.6,14,20.2,14L14.7,14C14.3,14,14,14.3,14,14.7L14,20.2C14,20.6,14.3,20.9,14.7,20.9L20.2,20.9C20.6,20.9,20.9,20.6,20.9,20.2L20.9,14.7zM7,.7C7,.3,6.6,0,6.2,0L.7,0C.3,0,0,.3,0,.7L0,6.2C0,6.6,.3,7,.7,7L6.2,7C6.6,7,7,6.6,7,6.2L7,.7zM7,28.7C7,28.3,6.6,27.9,6.2,27.9L.7,27.9C.3,27.9,0,28.3,0,28.7L0,34.2C0,34.6,.3,34.9,.7,34.9L6.2,34.9C6.6,34.9,7,34.6,7,34.2L7,28.7zM20.9,.7C20.9,.3,20.6,0,20.2,0L14.7,0C14.3,0,14,.3,14,.7L14,6.2C14,6.6,14.3,7,14.7,7L20.2,7C20.6,7,20.9,6.6,20.9,6.2L20.9,.7zM34.9,28.7C34.9,28.3,34.6,27.9,34.2,27.9L28.7,27.9C28.3,27.9,27.9,28.3,27.9,28.7L27.9,34.2C27.9,34.6,28.3,34.9,28.7,34.9L34.2,34.9C34.6,34.9,34.9,34.6,34.9,34.2L34.9,28.7z" stroke="#3498db" fill="#ffffff" id="shape7" transform="translate(689.57,818.42)"/>
        <path stroke-width="0.333333" d="M31.6,91.5C31.6,93.3,30.1,94.8,28.2,94.8L3.3,94.8C1.5,94.8,0,93.3,0,91.5L0,66.5C0,64.7,1.5,63.2,3.3,63.2L28.2,63.2C30.1,63.2,31.6,64.7,31.6,66.5L31.6,91.5zM158,3.3C158,1.5,156.5,0,154.7,0L129.7,0C127.9,0,126.4,1.5,126.4,3.3L126.4,28.2C126.4,30.1,127.9,31.6,129.7,31.6L154.7,31.6C156.5,31.6,158,30.1,158,28.2L158,3.3zM94.8,129.7C94.8,127.9,93.3,126.4,91.5,126.4L66.5,126.4C64.7,126.4,63.2,127.9,63.2,129.7L63.2,154.7C63.2,156.5,64.7,158,66.5,158L91.5,158C93.3,158,94.8,156.5,94.8,154.7L94.8,129.7zM158,66.5C158,64.7,156.5,63.2,154.7,63.2L129.7,63.2C127.9,63.2,126.4,64.7,126.4,66.5L126.4,91.5C126.4,93.3,127.9,94.8,129.7,94.8L154.7,94.8C156.5,94.8,158,93.3,158,91.5L158,66.5zM94.8,66.5C94.8,64.7,93.3,63.2,91.5,63.2L66.5,63.2C64.7,63.2,63.2,64.7,63.2,66.5L63.2,91.5C63.2,93.3,64.7,94.8,66.5,94.8L91.5,94.8C93.3,94.8,94.8,93.3,94.8,91.5L94.8,66.5zM31.6,3.3C31.6,1.5,30.1,0,28.2,0L3.3,0C1.5,0,0,1.5,0,3.3L0,28.2C0,30.1,1.5,31.6,3.3,31.6L28.2,31.6C30.1,31.6,31.6,30.1,31.6,28.2L31.6,3.3zM31.6,129.7C31.6,127.9,30.1,126.4,28.2,126.4L3.3,126.4C1.5,126.4,0,127.9,0,129.7L0,154.7C0,156.5,1.5,158,3.3,158L28.2,158C30.1,158,31.6,156.5,31.6,154.7L31.6,129.7zM94.8,3.3C94.8,1.5,93.3,0,91.5,0L66.5,0C64.7,0,63.2,1.5,63.2,3.3L63.2,28.2C63.2,30.1,64.7,31.6,66.5,31.6L91.5,31.6C93.3,31.6,94.8,30.1,94.8,28.2L94.8,3.3zM158,129.7C158,127.9,156.5,126.4,154.7,126.4L129.7,126.4C127.9,126.4,126.4,127.9,126.4,129.7L126.4,154.7C126.4,156.5,127.9,158,129.7,158L154.7,158C156.5,158,158,156.5,158,154.7L158,129.7z" stroke="#3498db" fill="#3498db" id="shape8" transform="translate(609.66,890.99)"/>
        <g id="shape9" transform="translate(641.81,1045.82)">
            <text class="st3">
                <tspan x="21.3" y="30.7">各子应用</tspan>
            </text>
        </g>
        <path d="M609.7,323.3L609.7,0L0,0L0,323.3L609.7,323.3z" stroke="#cdcece" fill="#e9ebef" id="shape10" transform="translate(183.68,1174.9)"/>
        <g id="shape11" transform="translate(183.68,1174.9)">
            <path d="M610.8,64.3L610.8,0L0,0L0,64.3L610.8,64.3z" stroke="#00b4f0" fill="#303030"/>
            <text class="st1">
                <tspan x="272.4" y="39.1">Header</tspan>
            </text>
        </g>
        <path stroke-width="0.333333" d="M1.9,17.5C1.9,8.9,8.9,1.9,17.5,1.9C26,1.9,33,8.9,33,17.5C33,21.9,31.1,25.9,28.2,28.7C28.6,26.4,27.8,23.7,27.7,23.2C26.7,20.3,24.7,19.4,23.5,19.2C22,20.7,19.9,21.6,17.5,21.6C15,21.6,12.9,20.7,11.4,19.2C10.2,19.4,8.2,20.3,7.2,23.2C7.1,23.7,6.3,26.4,6.7,28.7C3.8,25.9,1.9,21.9,1.9,17.5zM17.5,19.1C20.7,19.1,23.3,16.5,23.3,13.2C23.3,10,20.7,7.4,17.5,7.4C14.2,7.4,11.6,10,11.6,13.2C11.6,16.5,14.2,19.1,17.5,19.1zM17.5,34.9C27.1,34.9,34.9,27.1,34.9,17.5C34.9,7.8,27.1,0,17.5,0C7.8,0,0,7.8,0,17.5C0,27.1,7.8,34.9,17.5,34.9z" stroke="#3498db" fill="#ffffff" id="shape12" transform="translate(742.14,1189.6)"/>
        <g transform="translate(201.13,1189.6)">
            <path stroke-width="0.333333" d="M3.7,6.9C5.8,6.9,7.5,5.3,7.5,3.4C7.5,1.5,5.8,0,3.7,0C1.7,0,0,1.5,0,3.4C0,5.3,1.7,6.9,3.7,6.9z" stroke="#3498db" fill="#ffffff" id="shape13" transform="translate(22.44,4.59)"/>
            <path stroke-width="0.333333" d="M32.7,0L2.2,0C1,0,0,.9,0,2L0,25.5C0,26.6,1,27.6,2.2,27.6L32.7,27.6C33.9,27.6,34.9,26.6,34.9,25.5L34.9,2C34.9,.9,33.9,0,32.7,0zM24.7,14.2C24.5,13.9,24.1,13.7,23.7,13.7C23.3,13.7,23,13.9,22.7,14.2L21.2,15.3C20.9,15.5,20.7,15.6,20.3,15.6C20,15.6,19.7,15.5,19.5,15.3C19.4,15.3,19.3,15.1,19.2,15L15,10.9C14.6,10.5,14.2,10.3,13.7,10.3C13.1,10.3,12.7,10.6,12.3,10.9L2.5,21.8L2.5,3.1C2.6,2.6,3,2.3,3.5,2.3L31.4,2.3C31.9,2.3,32.4,2.7,32.4,3.2L32.4,21.8L24.7,14.2z" stroke="#3498db" fill="#ffffff" id="shape14"/>
        </g>
        <g id="shape15" transform="translate(611.25,1193.28)">
            <text class="st2">
                <tspan x="13.1" y="21.6">工作台</tspan>
            </text>
        </g>
        <path stroke-width="0.333333" d="M7,20.2C7,20.6,6.6,20.9,6.2,20.9L.7,20.9C.3,20.9,0,20.6,0,20.2L0,14.7C0,14.3,.3,14,.7,14L6.2,14C6.6,14,7,14.3,7,14.7L7,20.2zM34.9,.7C34.9,.3,34.6,0,34.2,0L28.7,0C28.3,0,27.9,.3,27.9,.7L27.9,6.2C27.9,6.6,28.3,7,28.7,7L34.2,7C34.6,7,34.9,6.6,34.9,6.2L34.9,.7zM20.9,28.7C20.9,28.3,20.6,27.9,20.2,27.9L14.7,27.9C14.3,27.9,14,28.3,14,28.7L14,34.2C14,34.6,14.3,34.9,14.7,34.9L20.2,34.9C20.6,34.9,20.9,34.6,20.9,34.2L20.9,28.7zM34.9,14.7C34.9,14.3,34.6,14,34.2,14L28.7,14C28.3,14,27.9,14.3,27.9,14.7L27.9,20.2C27.9,20.6,28.3,20.9,28.7,20.9L34.2,20.9C34.6,20.9,34.9,20.6,34.9,20.2L34.9,14.7zM20.9,14.7C20.9,14.3,20.6,14,20.2,14L14.7,14C14.3,14,14,14.3,14,14.7L14,20.2C14,20.6,14.3,20.9,14.7,20.9L20.2,20.9C20.6,20.9,20.9,20.6,20.9,20.2L20.9,14.7zM7,.7C7,.3,6.6,0,6.2,0L.7,0C.3,0,0,.3,0,.7L0,6.2C0,6.6,.3,7,.7,7L6.2,7C6.6,7,7,6.6,7,6.2L7,.7zM7,28.7C7,28.3,6.6,27.9,6.2,27.9L.7,27.9C.3,27.9,0,28.3,0,28.7L0,34.2C0,34.6,.3,34.9,.7,34.9L6.2,34.9C6.6,34.9,7,34.6,7,34.2L7,28.7zM20.9,.7C20.9,.3,20.6,0,20.2,0L14.7,0C14.3,0,14,.3,14,.7L14,6.2C14,6.6,14.3,7,14.7,7L20.2,7C20.6,7,20.9,6.6,20.9,6.2L20.9,.7zM34.9,28.7C34.9,28.3,34.6,27.9,34.2,27.9L28.7,27.9C28.3,27.9,27.9,28.3,27.9,28.7L27.9,34.2C27.9,34.6,28.3,34.9,28.7,34.9L34.2,34.9C34.6,34.9,34.9,34.6,34.9,34.2L34.9,28.7z" stroke="#3498db" fill="#ffffff" id="shape16" transform="translate(690.7,1189.6)"/>
        <path d="M25.7,49.6L0,24.8L25.7,0L12.9,24.8L25.7,49.6z" stroke="#2da2bf" fill="#2da2bf" id="shape17" transform="matrix(0,-1,1,0,462.6,1166.6)"/>
        <g id="shape18" transform="translate(213,1253.38)">
            <path d="M552,229.6L552,0L0,0L0,229.6L552,229.6z" stroke="#00b4f0" fill="#d0d5dc"/>
            <text class="st1">
                <tspan x="238" y="121.8">Content</tspan>
            </text>
        </g>
        <g id="shape19" transform="translate(843,951.48)">
            <text class="st4">
                <tspan x="15" y="35.5">基座应用</tspan>
            </text>
        </g>
        <g id="shape20" transform="translate(843,1350.19)">
            <text class="st4">
                <tspan x="15" y="28">子应用</tspan>
            </text>
        </g>
        <path d="M0,18L1.7,15.1L34.9,15.1L24.1,4.4L25.3,1.1L28.8,.1L43.9,15.1L43.7,21L28.8,35.9L25.3,34.8L24.1,31.6L34.9,20.8L1.7,20.8L0,18z" stroke="#ffaf00" fill="#ffaf00" id="shape21" transform="translate(800.87,1350.19)"/>
        <path d="M0,18L1.7,15.1L34.9,15.1L24.1,4.4L25.3,1.1L28.8,.1L43.9,15.1L43.7,21L28.8,35.9L25.3,34.8L24.1,31.6L34.9,20.8L1.7,20.8L0,18z" stroke="#ffaf00" fill="#ffaf00" id="shape22" transform="translate(800.87,961.98)"/>
    </g>
</svg>
